<svg version="1.1" xmlns="http://www.w3.org/2000/svg" xmlns:xlink="http://www.w3.org/1999/xlink" width="476.14199" height="324.51355" viewBox="0,0,476.14199,324.51355"><defs><linearGradient x1="278.84314" y1="167.00939" x2="476.97366" y2="167.40053" gradientUnits="userSpaceOnUse" id="color-1"><stop offset="0" stop-color="#ffb871"/><stop offset="1" stop-color="#ffa864"/></linearGradient><linearGradient x1="183.66866" y1="149.33483" x2="183.66866" y2="241.14783" gradientUnits="userSpaceOnUse" id="color-2"><stop offset="0" stop-color="#00cccc"/><stop offset="1" stop-color="#4c0099"/></linearGradient><linearGradient x1="198.59891" y1="135.98253" x2="198.59891" y2="164.07063" gradientUnits="userSpaceOnUse" id="color-3"><stop offset="0" stop-color="#ffb871"/><stop offset="1" stop-color="#ffa864"/></linearGradient><linearGradient x1="157.99422" y1="69.92033" x2="157.99422" y2="145.81783" gradientUnits="userSpaceOnUse" id="color-4"><stop offset="0" stop-color="#ffb871"/><stop offset="1" stop-color="#ffa864"/></linearGradient><linearGradient x1="127.98317" y1="51.87058" x2="127.98317" y2="108.02583" gradientUnits="userSpaceOnUse" id="color-5"><stop offset="0" stop-color="#ffff00"/><stop offset="1" stop-color="#ffc059"/></linearGradient><linearGradient x1="200.24714" y1="154.14516" x2="2.95465" y2="162.2349" gradientUnits="userSpaceOnUse" id="color-6"><stop offset="0" stop-color="#ffb871"/><stop offset="1" stop-color="#ffa864"/></linearGradient><radialGradient cx="207.56485" cy="100.52387" r="24.85495" gradientUnits="userSpaceOnUse" id="color-7"><stop offset="0" stop-color="#ffffff"/><stop offset="1" stop-color="#ffffff" stop-opacity="0"/></radialGradient><radialGradient cx="259.56485" cy="99.52387" r="24.85495" gradientUnits="userSpaceOnUse" id="color-8"><stop offset="0" stop-color="#ffffff"/><stop offset="1" stop-color="#ffffff" stop-opacity="0"/></radialGradient></defs><g transform="translate(-2.50115,-14.45135)"><g data-paper-data="{&quot;isPaintingLayer&quot;:true}" fill="none" fill-rule="nonzero" stroke="none" stroke-width="none" stroke-linecap="none" stroke-linejoin="miter" stroke-miterlimit="10" stroke-dasharray="" stroke-dashoffset="0" font-family="none" font-weight="none" font-size="none" text-anchor="none" style="mix-blend-mode: normal"><g data-paper-data="{&quot;origPos&quot;:null,&quot;origRot&quot;:0}" id="ID0.13743221387267113"><path d="M278.91056,160.32615c-0.07264,-0.28285 15.08546,1.9732 23.03345,1.56849c24.44395,-1.57536 14.58106,-4.59526 32.14183,-5.1682c40.24395,-1.30337 87.4541,-2.96798 123.00072,-0.51288c22.9717,1.59297 28.01586,8.03169 4.96939,9.74081c-41.90301,2.678 -97.37894,0.57787 -144.94923,-0.28615c-11.89402,-0.21738 -8.46223,-2.41653 -13.48132,-3.01454c-7.68747,-0.81848 -24.63451,-1.82325 -24.71484,-2.32751z" id="ID0.261942227371037" fill="url(#color-1)" stroke="#000000" stroke-width="3.22481" stroke-linecap="butt"/><path d="M268.85003,163.58522c0.22655,-2.59938 0.06063,-5.84864 4.91205,-6.97547c10.29227,-2.39711 22.96865,-1.40757 34.51521,-1.54388c10.43713,-0.1255 22.16067,-1.17376 32.07254,0.60062c4.07939,0.73536 2.56105,3.55679 2.3673,5.37793c-0.26635,2.5466 1.41208,6.09685 -3.10163,7.51635c-7.6208,2.17318 -17.92488,1.40923 -26.64421,1.29071c-13.39323,-0.18204 -27.47177,-0.27584 -39.9247,-2.22814c-3.14663,-0.49382 -4.34139,-2.5579 -4.19656,-4.03812z" id="ID0.8286206140182912" fill="#0fa3c1" stroke="none" stroke-width="0.26866" stroke-linecap="round"/></g><g id="ID0.5316603998653591" stroke-linecap="round"><path d="M263.71624,284.20322l-0.9399,42.1049" id="ID0.6076628044247627" fill="none" stroke="#ffad68" stroke-width="15"/><path d="M262.14373,282.21303v-32" id="ID0.406997624784708" fill="none" stroke="#003fff" stroke-width="15"/><path d="M273.05576,322.56673c6.94516,0.4392 14.64144,-0.815 20.86681,1.5437c7.62328,2.94 16.56111,8.4989 12.17206,12.3497c-4.66187,3.4379 -18.15051,2.348 -28.69172,2.3156c-10.80366,-0.034 -22.33951,0.2354 -30.11756,-2.7146c-5.64278,-2.1442 -5.45308,-6.807 -3.79069,-10.407c1.49366,-2.0631 6.92241,-3.9449 12.17206,-4.6311c5.65314,-0.7363 10.85593,1.1501 17.38904,1.5437z" id="ID0.8583762627094984" fill="#ffffff" stroke="none" stroke-width="0.77186"/></g><g id="ID0.04381172964349389" stroke-linecap="round"><path d="M206.15528,282.45403l-0.9399,43.0008" id="ID0.6076628044247627" fill="none" stroke="#ffad68" stroke-width="15.16037"/><path d="M204.58277,247.75983v32.6809" id="ID0.406997624784708" fill="none" stroke="#003fff" stroke-width="15.16042"/><path d="M211.98775,321.31233c6.13931,0.3965 12.94277,-0.7358 18.44564,1.3936c6.7388,2.6542 14.63986,7.6727 10.75996,11.1492c-4.12096,3.1036 -16.04453,2.1197 -25.36287,2.0904c-9.55016,-0.0306 -19.74758,0.2125 -26.62313,-2.4507c-4.98809,-1.9358 -4.82048,-6.1453 -3.35115,-9.3952c1.32041,-1.8626 6.11948,-3.5615 10.76018,-4.1809c4.9971,-0.6648 9.59635,1.0382 15.37137,1.3936z" id="ID0.8583762627094984" fill="#ffffff" stroke="none" stroke-width="0.6896"/></g><path d="M204.58277,243.41303c12.19076,0.333 24.45316,0.396 36.60922,1c7.98441,0.397 23.79599,2 23.79599,2" id="ID0.8955659824423492" fill="none" stroke="#003fff" stroke-width="13.6663" stroke-linecap="round"/><path d="M223.71734,149.34643c16.31442,0.2477 36.70204,0.0022 43.83352,5.9866c15.16973,12.6955 9.11716,28.3806 10.11541,42.6551c0.91715,12.9027 7.6404,27.3845 -3.37188,39.6616c-4.56365,5.0528 -22.28769,3.2104 -33.71811,2.9934c-15.98392,-0.2979 -38.2412,1.8214 -47.20517,-3.7417c-13.73172,-9.3953 -9.06512,-22.1447 -8.42958,-32.9267c0.97617,-16.5613 1.39093,-33.9691 13.48729,-49.39c3.05985,-3.8966 15.99744,-5.3992 25.28852,-5.2383z" id="ID0.8286206140182912" fill="url(#color-2)" stroke="none" stroke-width="0.74834" stroke-linecap="round"/><path d="M234.81996,136.00713c6.48648,-0.1144 15.70299,0.1663 18.28478,2.8582c3.31285,3.454 -6.81923,7.4954 -4.66525,11.093c3.53746,4.8573 24.04516,8.9798 20.42975,12.3234c-3.59739,3.3167 -22.61346,1.0233 -33.52548,0.9301c-12.07766,-0.099 -31.20435,2.0576 -36.14468,-1.3951c-4.26875,-2.9881 15.51803,-6.9174 18.85814,-11.3934c2.28216,-3.7098 -7.0132,-8.0984 -3.09387,-11.558c3.16349,-2.7935 12.87428,-2.9726 19.85662,-2.8582z" id="ID0.261942227371037" fill="url(#color-3)" stroke="#000000" stroke-width="1.16259" stroke-linecap="butt"/><g id="ID0.1839924338273704" stroke="none" stroke-width="0.46436"><path d="M247.69717,14.90293c5.48237,0.3668 12.74519,0.9876 14.9654,3.9128c4.73554,6.1711 4.9944,12.4179 3.7062,20.1497c-1.28797,7.7317 -3.13105,13.9574 -10.30668,19.4724c-3.16416,2.4293 -10.56148,1.9114 -15.93549,1.9103c-6.2898,-0.5626 -15.11431,-0.5971 -17.86192,-3.5438c-5.62678,-6.0181 -4.9944,-12.4179 -3.70643,-20.1497c1.28797,-7.7317 3.11956,-14.0338 10.3069,-19.4724c3.85647,-2.9491 12.42731,-2.487 18.83201,-2.2793z" id="ID0.8994701993651688" fill="#717f12" stroke-linecap="round"/><path d="M246.33508,17.41422c4.9142,0.2375 8.99483,2.6876 11.61718,6.4543c2.62347,3.7662 3.78866,8.849 2.87197,14.3519c-0.91669,5.5029 -3.74315,10.3928 -7.56966,13.8473c-3.82538,3.4551 -8.65059,5.4748 -13.56479,5.2373c-4.9142,-0.2376 -8.99483,-2.6877 -11.61718,-6.4544c-2.62347,-3.7662 -3.78866,-8.849 -2.87197,-14.3519c0.91669,-5.5029 3.74315,-10.3928 7.56966,-13.8473c3.82538,-3.455 8.65059,-5.4747 13.56479,-5.2372z" id="ID0.24504904262721539" fill="#abc01b" stroke-linecap="butt"/></g><g id="ID0.1839924338273704" stroke="none" stroke-width="0.41779"><path d="M141.82759,32.32352c4.77655,-1.2321 11.25581,-2.7758 16.30991,-1.4532c10.70363,2.7764 17.92838,6.8051 25.58996,12.2234c7.6618,5.4183 13.18946,9.9978 13.67337,15.5434c0.21064,2.4437 -6.26006,4.0911 -10.53963,5.534c-5.6394,1.3205 -12.70306,3.6683 -18.2012,2.4733c-11.24117,-2.4366 -17.92838,-6.805 -25.58996,-12.2234c-7.6618,-5.4183 -13.28475,-10.0447 -13.67337,-15.5434c-0.24354,-2.9707 7.09881,-4.9699 12.43091,-6.5541z" id="ID0.8994701993651688" fill="#717f12" stroke-linecap="round"/><path d="M143.46295,34.25762c4.17886,-1.1643 10.18029,-0.6531 16.50006,1.1135c6.31999,1.7661 12.95854,4.7876 18.41162,8.644c5.45308,3.8564 8.697,7.8236 9.53214,11.1178c0.83672,3.2943 -0.73534,5.9155 -4.91442,7.0797c-4.17886,1.1643 -10.18029,0.6531 -16.50006,-1.1135c-6.31999,-1.7661 -12.95854,-4.7876 -18.41162,-8.644c-5.45308,-3.8564 -8.697,-7.8236 -9.53214,-11.1178c-0.83672,-3.2943 0.73534,-5.9155 4.91442,-7.0797z" data-paper-data="{&quot;origPos&quot;:null}" id="ID0.24504904262721539" fill="#abc01b" stroke-linecap="butt"/></g><path d="M230.17341,69.92033c19.91294,0 37.95779,4.1128 51.02424,10.7575c13.06668,6.6442 21.15495,15.8203 21.15495,25.947c0,10.1267 -8.38836,18.8002 -21.15495,25.947c-11.59059,6.4756 -28.67685,13.1004 -47.52057,13.246c-20.47368,-0.1456 -40.97664,-6.3499 -54.52814,-13.246c-13.50937,-6.8749 -21.15472,-15.8203 -21.15472,-25.947c0,-10.1267 8.08827,-19.3028 21.15472,-25.947c13.06645,-6.6447 31.1113,-10.7575 51.02447,-10.7575z" id="ID0.261942227371037" fill="url(#color-4)" stroke="#000000" stroke-width="3.11056" stroke-linecap="butt"/><path d="M232.97643,119.84473c0,0 0.17099,1.1814 0.70064,1.7108c0.43728,0.4361 1.31185,0.7645 2.10238,1.0887c0.73714,0.3023 1.56687,0.568 2.45271,0.7776c0.8802,0.2084 1.82348,0.3851 2.80303,0.4666c0.91805,0.0765 2.54935,-0.2625 2.80303,0c0.27192,0.2818 -1.16879,0.726 -1.75184,1.0887c-0.58304,0.3627 -1.07079,0.7614 -1.75184,1.0887c-0.73038,0.3508 -1.56845,0.6613 -2.45271,0.9331c-0.64342,0.1979 -2.10238,0.4666 -2.10238,0.4666" id="ID0.6929344818927348" fill="none" stroke="#000000" stroke-width="1.24422" stroke-linecap="round"/><path d="M229.47254,134.61983c0,0 0.31946,2.1065 -1.40151,2.4884c-2.12897,0.4722 -4.92794,-0.1088 -7.00779,-0.6221c-2.3083,-0.5692 -3.02854,-2.234 -5.60605,-2.4884c-2.45406,-0.242 -4.50733,1.3549 -7.00779,1.2442c-2.70773,-0.1201 -7.00757,-1.8663 -7.00757,-1.8663" id="ID0.9106158218346536" fill="none" stroke="#000000" stroke-width="3.11056" stroke-linecap="round"/><path d="M155.46604,108.02583c0,0 5.29786,-7.2071 2.80325,-10.5759c-7.18847,-9.7074 -30.91801,-24.9124 -30.27323,-26.7818c0.32937,-2.2427 21.51496,13.0183 33.07626,14.9617c5.31746,0.8878 0,-6.6391 0,-9.9537c0,-3.1075 -0.67406,-6.2386 0,-9.3317c0.73151,-3.3569 3.49534,-11.6316 4.20454,-9.9538c1.06381,2.5196 -6.23258,19.6923 0,19.9076c24.76248,-14.8846 28.21996,-18.2839 40.64457,-22.396c5.86131,-1.6225 24.21165,-3.3034 21.02315,-0.6221c-11.65097,9.7696 -55.75888,26.3793 -51.8569,26.7507c4.03648,-0.2115 64.64445,-23.5748 82.69065,-26.1286c9.21516,-1.3033 -29.0328,14.953 -22.42444,17.4191c6.70073,3.1298 31.35799,-5.6345 49.05365,-6.2211c7.28377,-0.2395 19.73654,1.3817 19.62164,4.3548c-0.15432,4.0773 -12.5395,7.227 -21.02315,9.9537c-5.09307,1.3625 -11.62709,1.8042 -18.2199,1.8664c-19.14088,0.1903 -40.28028,-5.0043 -57.46318,-1.2443c-19.93952,4.3629 -27.30327,18.7305 -42.04608,23.0181c-5.57947,1.6225 -3.71251,-8.2336 1.40151,-11.198c12.95876,-7.4983 28.26344,-14.7881 47.65236,-18.0412c21.67626,-3.3357 47.32434,1.1024 68.67529,-0.6221c5.37784,-0.433 -14.01536,-3.7326 -14.01536,-3.7326" data-paper-data="{&quot;origPos&quot;:null}" id="ID0.5538181299343705" fill="none" stroke="url(#color-5)" stroke-width="14.5" stroke-linecap="round"/><path d="M234.99186,17.14843c4.37373,-1.6515 10.87125,-3.3958 17.0448,-2.4112c10.48037,1.6821 18.18588,5.3546 26.35819,9.671c8.1723,4.3164 14.2972,9.1768 16.92563,13.1904c2.62843,4.0146 2.03615,7.3278 -2.40314,8.9843c-4.43952,1.6564 -11.8936,1.3454 -20.34977,-0.4947c-8.45414,-1.8399 -17.91148,-5.2096 -26.35819,-9.671c-8.44693,-4.4614 -13.89438,-8.3907 -16.92563,-13.1904c-1.32221,-2.113 1.85209,-4.6592 5.70811,-6.0784z" id="ID0.16357535170391202" fill="#717f12" stroke="none" stroke-width="0.65241" stroke-linecap="butt"/><g data-paper-data="{&quot;origPos&quot;:null,&quot;origRot&quot;:0}" id="ID0.9187761167995632"><path d="M201.63167,160.80015c0.13374,0.27842 -15.44377,-1.31842 -23.26683,-0.57546c-23.9879,2.61411 -13.51502,5.19785 -30.86954,6.51964c-39.77337,3.01955 -86.40203,6.69678 -122.31632,5.77435c-23.21069,-0.60246 -29.62987,-6.79532 -7.06199,-9.48276c41.12613,-4.45878 96.79979,-4.74253 144.33613,-5.91832c11.88583,-0.29264 8.94769,2.04313 14.07329,2.42356c7.82944,0.48568 24.91577,0.76052 25.10526,1.25899z" id="ID0.261942227371037" fill="url(#color-6)" stroke="#000000" stroke-width="3.22481" stroke-linecap="butt"/><path d="M204.89264,157.97613c0.3391,2.59696 1.21001,5.82399 -3.37405,7.15319c-9.72366,2.8264 -22.55592,2.38396 -34.01909,3.01377c-10.36125,0.57157 -21.80249,2.11667 -32.05358,0.77473c-4.22011,-0.55736 -3.32167,-3.43062 -3.52439,-5.25156c-0.28802,-2.54613 -2.72977,-6.00802 1.45459,-7.61407c7.11327,-2.48919 17.53528,-2.16976 26.23973,-2.42495c13.37038,-0.39197 27.40371,-0.90111 40.22267,0.50917c3.23923,0.35686 4.87675,2.36019 5.05411,3.83972z" id="ID0.8286206140182912" fill="#0fa3c1" stroke="none" stroke-width="0.26866" stroke-linecap="round"/></g><g id="ID0.1381132174283266"><path d="M238.69603,162.07163c6.27831,0 11.96682,1.2263 16.0853,3.2068c4.11848,1.9804 6.66896,4.7158 6.66896,7.7349c0,3.0191 -2.55048,5.7545 -6.66896,7.7349c-4.11848,1.9805 -9.80699,3.2068 -16.0853,3.2068c-6.27809,0 -11.9666,-1.2263 -16.08508,-3.2068c-4.11848,-1.9804 -6.66896,-4.7158 -6.66896,-7.7349c0,-3.0191 2.55048,-5.7545 6.66896,-7.7349c4.11848,-1.9805 9.80699,-3.2068 16.08508,-3.2068z" id="ID0.5483896522782743" fill="#ff00bf" stroke="none" stroke-width="0.84167" stroke-linecap="butt"/><path d="M256.64852,173.48443c-3.08621,-1.8113 7.32184,-5.6735 16.13847,-6.6125c5.68445,-0.6056 13.64814,3.7305 12.41424,5.5104c-1.24899,1.8019 -17.38003,0.5191 -17.38003,1.6531c0,1.1341 12.81525,1.3815 17.38003,3.3063c4.2915,1.8096 9.94622,5.6387 7.44846,7.1635c-2.46802,1.506 -12.18445,0.0881 -17.3798,-1.1021c-8.09053,-1.8532 -20.49846,-3.6826 -21.10426,-7.7146z" data-paper-data="{&quot;origPos&quot;:null}" id="ID0.052782734390348196" fill="none" stroke="#ff00bf" stroke-width="10" stroke-linecap="round"/><path d="M225.76633,173.48853c-0.57223,4.032 -12.29326,5.8614 -19.93547,7.7146c-4.90789,1.1902 -14.08633,2.6081 -16.4176,1.1021c-2.35944,-1.5248 2.98213,-5.3539 7.03595,-7.1635c4.312,-1.9248 16.4176,-2.1722 16.4176,-3.3063c0,-1.134 -15.23777,0.1488 -16.4176,-1.6531c-1.16564,-1.7799 6.35716,-6.116 11.72689,-5.5104c8.32843,0.939 18.1602,4.8012 15.24498,6.6125z" data-paper-data="{&quot;origPos&quot;:null}" id="ID0.052782734390348196" fill="none" stroke="#ff00bf" stroke-width="10" stroke-linecap="round"/></g><g data-paper-data="{&quot;origPos&quot;:null}" stroke-linecap="butt"><path d="M223.34227,100.80121c0,9.16409 -6.77346,16.59303 -15.12894,16.59303c-8.35549,0 -15.12895,-7.42894 -15.12895,-16.59303c0,-9.16409 6.77346,-16.59301 15.12895,-16.59301c8.35549,0 15.12894,7.42894 15.12894,16.59303z" data-paper-data="{&quot;origPos&quot;:null}" fill="#ffffff" stroke="#000000" stroke-width="5.5"/><path d="M212.17181,100.63854c0,2.24611 -1.94222,4.06694 -4.33804,4.06694c-2.39583,0 -4.33804,-1.82081 -4.33804,-4.06694c0,-2.24611 1.94222,-4.06692 4.33804,-4.06692c2.39583,0 4.33804,1.82079 4.33804,4.06692z" data-paper-data="{&quot;origPos&quot;:null}" fill="#000000" stroke="#000000" stroke-width="0"/><path d="M232.89478,101.79036c0,13.11496 -11.12793,23.74676 -24.85495,23.74676c-13.72705,0 -24.85495,-10.6318 -24.85495,-23.74676c0,-13.11496 11.12793,-23.74677 24.85495,-23.74677c13.72705,0 24.85495,10.6318 24.85495,23.74677z" data-paper-data="{&quot;origPos&quot;:null}" fill="url(#color-7)" stroke="none" stroke-width="NaN"/></g><g data-paper-data="{&quot;origPos&quot;:null}" stroke-linecap="butt"><path d="M275.34227,99.80121c0,9.16409 -6.77346,16.59304 -15.12893,16.59304c-8.35549,0 -15.12896,-7.42894 -15.12896,-16.59303c0,-9.16409 6.77346,-16.59301 15.12896,-16.59301c8.35549,0 15.12893,7.42894 15.12893,16.59303z" data-paper-data="{&quot;origPos&quot;:null}" fill="#ffffff" stroke="#000000" stroke-width="5.5"/><path d="M264.17181,99.63854c0,2.24611 -1.94222,4.06694 -4.33805,4.06694c-2.39582,0 -4.33804,-1.82081 -4.33804,-4.06694c0,-2.24611 1.94222,-4.06693 4.33804,-4.06693c2.39583,0 4.33805,1.8208 4.33805,4.06693z" data-paper-data="{&quot;origPos&quot;:null}" fill="#000000" stroke="#000000" stroke-width="0"/><path d="M284.89478,100.79037c0,13.11496 -11.12793,23.74676 -24.85494,23.74676c-13.72705,0 -24.85494,-10.6318 -24.85494,-23.74676c0,-13.11496 11.12793,-23.74677 24.85494,-23.74677c13.72705,0 24.85494,10.63179 24.85494,23.74678z" data-paper-data="{&quot;origPos&quot;:null}" fill="url(#color-8)" stroke="none" stroke-width="NaN"/></g><text transform="translate(54.03516,83.88672) scale(0.5,0.5)" font-size="40" xml:space="preserve" fill="#9966ff" fill-rule="nonzero" stroke="none" stroke-width="1" stroke-linecap="butt" stroke-linejoin="miter" stroke-miterlimit="10" stroke-dasharray="" stroke-dashoffset="0" font-family="Sans Serif" font-weight="normal" text-anchor="start" style="mix-blend-mode: normal"><tspan x="0" dy="0">TOES</tspan></text></g></g></svg>