<svg version="1.1" xmlns="http://www.w3.org/2000/svg" xmlns:xlink="http://www.w3.org/1999/xlink" width="260.43488" height="324.17823" viewBox="0,0,260.43488,324.17823"><g transform="translate(-135.97982,-36.94052)"><g data-paper-data="{&quot;isPaintingLayer&quot;:true}" fill="none" fill-rule="nonzero" stroke="none" stroke-width="none" stroke-linecap="butt" stroke-linejoin="miter" stroke-miterlimit="10" stroke-dasharray="" stroke-dashoffset="0" font-family="none" font-weight="none" font-size="none" text-anchor="none" style="mix-blend-mode: normal"><g data-paper-data="{&quot;origPos&quot;:null}"><path d="M385.54247,218.43c0,70.90483 15.12137,142.68874 -114.80077,142.68874c-64.53126,0 -118.8877,-71.78392 -118.8877,-142.68874c0,-70.90483 52.31301,-128.38444 116.84427,-128.38444c0,0 54.03188,-48.16132 75.73937,-0.96589c9.72348,21.14039 41.10498,58.44558 41.10498,129.35026z" data-paper-data="{&quot;origPos&quot;:null}" fill="#ffd6a1" stroke-width="0"/><g data-paper-data="{&quot;origPos&quot;:null}" fill="none" stroke-width="1" font-family="sans-serif" font-weight="normal" font-size="12" text-anchor="start"/><g data-paper-data="{&quot;origPos&quot;:null}" fill="none" stroke-width="1" font-family="sans-serif" font-weight="normal" font-size="12" text-anchor="start"/><path d="M292.84968,308.44714c-5.21335,0.6517 -4.36681,-8.92846 -4.36681,-8.92846l2.04343,-2.0435c3.14698,-2.54446 8.67056,-6.20512 12.94763,-7.21371c-1.07342,-0.63913 -2.06753,-1.27002 -2.73033,-1.70372c-2.70556,-1.77069 -4.71908,-4.44516 -6.78684,-6.93112c-6.8069,-8.18365 -13.1432,-16.3667 -13.1432,-27.43597c0,0 0,-5.25392 5.25392,-5.25392c5.25392,0 5.25392,5.25392 5.25392,5.25392c0,17.19964 21.77011,22.8414 23.23019,37.42206c0.863,8.61728 -16.644,9.58368 -16.59528,13.29277l-2.0435,2.04343c0,0 2.15,0.84661 -3.06342,1.49831z" data-paper-data="{&quot;origPos&quot;:null}" fill="#000000" stroke-width="0.5"/><path d="M273.82254,343.29821c-3.28207,4.10267 -4.10267,1.97185 -4.10267,1.97185h-3.06525c-12.5531,-0.71608 -24.10106,-10.85768 -30.0177,-22.15369l-0.50992,0.17l-0.73519,-2.20564l-3.35175,-1.1173l1.83581,-5.50733c0.20197,-1.41341 0.99286,-3.02322 3.32698,-3.8749c0.13237,-0.05027 0.26731,-0.09532 0.4046,-0.13501c2.86763,-0.86903 4.60229,0.48904 5.53827,1.73519c0.41717,0.51279 0.73938,1.10576 0.94032,1.75216c2.54321,7.47484 13.3623,22.5968 22.56865,20.82861h3.06525c0,0 7.38481,4.4334 4.10267,8.53606z" data-paper-data="{&quot;origPos&quot;:null}" fill="#000000" stroke-width="0.5"/><path d="M396.4147,99.90912c0,49.03682 -8.6979,48.37712 -61.72736,34.49181c-27.23019,-7.12999 -17.69619,-17.12232 -46.08843,-17.12232c-36.31108,0 -25.94207,40.19972 -79.39737,17.268c-30.70541,-16.654 -21.57291,65.71316 -33.42082,88.21059c-6.57245,12.48019 11.94477,42.10828 3.67256,53.76634c-24.81684,34.97409 -38.32004,-69.2793 -38.32004,-117.3539c0,-16.3681 -17.42365,-72.71057 11.80439,-66.20883c26.16404,-9.04885 18.02589,-13.89809 45.40681,-27.90098c48.52558,-24.81647 70.76055,-39.33216 111.95042,-17.25903c0,0 31.80492,8.79131 34.99836,8.28309c-1.14089,4.77817 51.12133,-25.5821 51.12133,43.82524z" data-paper-data="{&quot;origPos&quot;:null}" fill="#ffd16d" stroke-width="0"/><path d="M199.2603,145.22605c-1.3824,-5.06885 3.68645,-6.45118 3.68645,-6.45118l1.75422,-0.68984c8.34511,-8.34511 25.37086,-11.02334 38.45402,-11.61667v-0.1395h6.13036c0.66404,0 1.29928,0.12326 1.88424,0.34801c1.5072,0.51205 3.36975,1.77774 3.36975,4.90591c0,3.12817 -1.86255,4.39393 -3.36975,4.90598c-0.58489,0.22475 -1.2202,0.34793 -1.88424,0.34793c-10.83474,0 -29.7753,1.29957 -37.15423,8.67843l-6.41965,3.39717c0,0 -5.06877,1.3824 -6.45117,-3.68645z" fill="#ffc547" stroke-width="0.5"/><path d="M346.17878,137.46523c-1.79545,4.93766 -6.73311,3.14213 -6.73311,3.14213l-6.00653,-3.26597c-12.44748,-12.44748 -19.83685,-12.76543 -37.15423,-12.76543v0c-0.66404,0 -1.29927,-0.12325 -1.88423,-0.34801c-1.5072,-0.51205 -3.36975,-1.77774 -3.36975,-4.90591c0,-2.30912 1.01492,-3.6034 2.15257,-4.32882l3.47316,-3.47323l2.54806,2.54806h5.25392v0.13993c14.63482,0.60399 24.24629,3.53902 36.41052,15.70318l2.16727,0.82095c0,0 4.93766,1.79546 3.14213,6.73311z" fill="#ffc547" stroke-width="0.5"/></g><g data-paper-data="{&quot;origPos&quot;:null}" stroke-width="0"><path d="M275.96423,201.00326c0,28.00315 -15.56647,50.70424 -34.7686,50.70424c-19.2022,0 -34.7686,-22.70102 -34.7686,-50.70424c0,-28.00315 15.56647,-50.70424 34.7686,-50.70424c19.20221,0 34.7686,22.70102 34.7686,50.70424z" data-paper-data="{&quot;origPos&quot;:null}" fill="#ffffff"/><path d="M242.29456,238.61949c-13.21928,0 -23.93562,-16.48664 -23.93562,-36.82401c0,-20.33737 10.71634,-36.82401 23.93562,-36.82401c13.21928,0 23.93561,16.48665 23.93561,36.82401c0,20.33737 -10.71634,36.82401 -23.93561,36.82401z" data-paper-data="{&quot;origPos&quot;:null,&quot;index&quot;:null}" fill="#bedadc"/><path d="M260.90335,202.85714c0,11.52863 -4.36137,20.8744 -9.7414,20.8744c-5.38003,0 -9.74141,-9.34578 -9.74141,-20.8744c0,-11.52863 4.36138,-20.8744 9.74141,-20.8744c5.38004,0 9.7414,9.34577 9.7414,20.8744z" data-paper-data="{&quot;origPos&quot;:null}" fill="#000000"/><path d="M256.53926,170.83967c0,2.56379 -1.26187,4.64212 -2.81845,4.64212c-1.55659,0 -2.81845,-2.07833 -2.81845,-4.64212c0,-2.56379 1.26186,-4.64213 2.81845,-4.64213c1.55659,0 2.81846,2.07834 2.81846,4.64213z" fill="#ffffff"/><path d="M247.58662,176.4765c0,0.73247 -0.44539,1.32633 -0.99471,1.32633c-0.54939,0 -0.99471,-0.59379 -0.99471,-1.32633c0,-0.73247 0.44539,-1.32632 0.99471,-1.32632c0.54939,0 0.99471,0.59378 0.99471,1.32632z" fill="#ffffff"/><path d="M253.22353,182.44496c0,1.09877 -0.51962,1.98949 -1.16052,1.98949c-0.64096,0 -1.16052,-0.89071 -1.16052,-1.98949c0,-1.09877 0.51962,-1.98949 1.16052,-1.98949c0.64096,0 1.16052,0.89071 1.16052,1.98949z" fill="#ffffff"/></g><g data-paper-data="{&quot;origPos&quot;:null}" stroke-width="0"><path d="M364.35336,206.19338c0,28.00315 -15.56647,50.70417 -34.7686,50.70417c-19.20213,0 -34.7686,-22.70102 -34.7686,-50.70417c0,-28.00315 15.56647,-50.70424 34.7686,-50.70424c19.20213,0 34.7686,22.70109 34.7686,50.70424z" data-paper-data="{&quot;origPos&quot;:null}" fill="#ffffff"/><path d="M330.68375,243.80961c-13.21927,0 -23.93561,-16.48665 -23.93561,-36.82401c0,-20.33737 10.71634,-36.82408 23.93561,-36.82408c13.21927,0 23.93562,16.48671 23.93562,36.82408c0,20.33737 -10.71635,36.82401 -23.93562,36.82401z" data-paper-data="{&quot;origPos&quot;:null,&quot;index&quot;:null}" fill="#bedadc"/><path d="M349.29247,208.04726c0,11.52863 -4.36137,20.8744 -9.7414,20.8744c-5.37997,0 -9.74133,-9.34578 -9.74133,-20.8744c0,-11.52863 4.36137,-20.87433 9.74133,-20.87433c5.37997,0 9.7414,9.34578 9.7414,20.87433z" data-paper-data="{&quot;origPos&quot;:null}" fill="#000000"/><path d="M344.92846,176.02979c0,2.56379 -1.26179,4.64213 -2.81845,4.64213c-1.55659,0 -2.81846,-2.07834 -2.81846,-4.64213c0,-2.56379 1.26187,-4.64213 2.81846,-4.64213c1.55659,0 2.81845,2.07834 2.81845,4.64213z" fill="#ffffff"/><path d="M335.97581,181.66663c0,0.73247 -0.44538,1.32632 -0.99478,1.32632c-0.54939,0 -0.99478,-0.59378 -0.99478,-1.32632c0,-0.73247 0.44539,-1.32632 0.99478,-1.32632c0.54939,0 0.99478,0.59385 0.99478,1.32632z" fill="#ffffff"/><path d="M341.61265,187.63508c0,1.09877 -0.51962,1.98949 -1.16051,1.98949c-0.64096,0 -1.16051,-0.89078 -1.16051,-1.98949c0,-1.09877 0.51962,-1.98949 1.16051,-1.98949c0.64096,0 1.16051,0.89078 1.16051,1.98949z" fill="#ffffff"/></g></g></g></svg>